<svg xmlns="http://www.w3.org/2000/svg" width="900" height="645" viewBox="0 0 900 645">
  <rect width="900" height="645" fill="#f4f1e8"/>
  <text x="40" y="24" font-family="monospace" font-size="16" fill="#213547">Sequence Search Debug</text>
  <text x="40" y="42" font-family="monospace" font-size="12" fill="#213547">seed=(31.768934, 35.193763) speed=25.0mps base_radius=0.0m update_radius=5.0m residual=0.25m</text>
  <rect x="40.0" y="56.0" width="820.00" height="461.37" fill="#ffffff" stroke="#50623a" stroke-width="2"/>
  <rect x="451.97" y="219.72" width="8.43" height="8.62" fill="#7d4e57" fill-opacity="0.08" stroke="#c05621" stroke-width="1.5"/> <rect x="-33.06" y="-276.27" width="978.47" height="1000.61" fill="#7d4e57" fill-opacity="0.08" stroke="#c05621" stroke-width="1.5"/> <rect x="-576.65" y="-832.17" width="2065.66" height="2112.40" fill="#7d4e57" fill-opacity="0.08" stroke="#c05621" stroke-width="1.5"/> <rect x="-1065.89" y="-1332.47" width="3044.13" height="3113.01" fill="#7d4e57" fill-opacity="0.08" stroke="#c05621" stroke-width="1.5"/> <rect x="-1609.48" y="-1888.37" width="4131.32" height="4224.80" fill="#7d4e57" fill-opacity="0.08" stroke="#c05621" stroke-width="1.5"/> <rect x="-2153.08" y="-2444.26" width="5218.51" height="5336.59" fill="#7d4e57" fill-opacity="0.08" stroke="#c05621" stroke-width="1.5"/> <rect x="-2642.31" y="-2944.57" width="6196.98" height="6337.20" fill="#7d4e57" fill-opacity="0.08" stroke="#c05621" stroke-width="1.5"/> <rect x="-3185.91" y="-3500.46" width="7284.17" height="7448.99" fill="#7d4e57" fill-opacity="0.08" stroke="#c05621" stroke-width="1.5"/> <rect x="-3729.50" y="-4056.36" width="8371.36" height="8560.78" fill="#7d4e57" fill-opacity="0.08" stroke="#c05621" stroke-width="1.5"/> <rect x="-4218.74" y="-4556.66" width="9349.83" height="9561.39" fill="#7d4e57" fill-opacity="0.08" stroke="#c05621" stroke-width="1.5"/> <rect x="-4762.33" y="-5112.56" width="10437.02" height="10673.18" fill="#7d4e57" fill-opacity="0.08" stroke="#c05621" stroke-width="1.5"/> <rect x="-4816.69" y="-5168.15" width="10545.74" height="10784.36" fill="#7d4e57" fill-opacity="0.08" stroke="#c05621" stroke-width="1.5"/> <rect x="451.97" y="219.72" width="8.43" height="8.62" fill="#8ecae6" fill-opacity="0.08" stroke="#0f4c5c" stroke-width="1.5"/> <rect x="401.67" y="168.59" width="108.72" height="111.18" fill="#8ecae6" fill-opacity="0.08" stroke="#0f4c5c" stroke-width="1.5"/> <rect x="400.89" y="167.71" width="108.72" height="111.18" fill="#8ecae6" fill-opacity="0.08" stroke="#0f4c5c" stroke-width="1.5"/> <rect x="379.59" y="168.55" width="108.72" height="111.18" fill="#8ecae6" fill-opacity="0.08" stroke="#0f4c5c" stroke-width="1.5"/> <rect x="378.86" y="168.36" width="108.72" height="111.18" fill="#8ecae6" fill-opacity="0.08" stroke="#0f4c5c" stroke-width="1.5"/> <rect x="378.81" y="168.64" width="108.72" height="111.18" fill="#8ecae6" fill-opacity="0.08" stroke="#0f4c5c" stroke-width="1.5"/> <rect x="371.12" y="196.73" width="108.72" height="111.18" fill="#8ecae6" fill-opacity="0.08" stroke="#0f4c5c" stroke-width="1.5"/> <rect x="399.75" y="195.55" width="108.72" height="111.18" fill="#8ecae6" fill-opacity="0.08" stroke="#0f4c5c" stroke-width="1.5"/> <rect x="350.20" y="138.39" width="217.44" height="222.36" fill="#8ecae6" fill-opacity="0.08" stroke="#0f4c5c" stroke-width="1.5"/> <rect x="382.74" y="165.76" width="108.72" height="111.18" fill="#8ecae6" fill-opacity="0.08" stroke="#0f4c5c" stroke-width="1.5"/> <rect x="390.76" y="162.69" width="108.72" height="111.18" fill="#8ecae6" fill-opacity="0.08" stroke="#0f4c5c" stroke-width="1.5"/> <rect x="390.75" y="162.52" width="108.72" height="111.18" fill="#8ecae6" fill-opacity="0.08" stroke="#0f4c5c" stroke-width="1.5"/> <rect x="451.97" y="219.72" width="8.43" height="8.62" fill="#b7e4c7" fill-opacity="0.08" stroke="#2b9348" stroke-width="1.5"/> <rect x="390.80" y="157.47" width="130.46" height="133.41" fill="#b7e4c7" fill-opacity="0.08" stroke="#2b9348" stroke-width="1.5"/> <rect x="390.02" y="156.59" width="130.46" height="133.41" fill="#b7e4c7" fill-opacity="0.08" stroke="#2b9348" stroke-width="1.5"/> <rect x="368.72" y="157.43" width="130.46" height="133.41" fill="#b7e4c7" fill-opacity="0.08" stroke="#2b9348" stroke-width="1.5"/> <rect x="367.99" y="157.24" width="130.46" height="133.41" fill="#b7e4c7" fill-opacity="0.08" stroke="#2b9348" stroke-width="1.5"/> <rect x="367.94" y="157.52" width="130.46" height="133.41" fill="#b7e4c7" fill-opacity="0.08" stroke="#2b9348" stroke-width="1.5"/> <rect x="360.25" y="185.61" width="130.46" height="133.41" fill="#b7e4c7" fill-opacity="0.08" stroke="#2b9348" stroke-width="1.5"/> <rect x="388.88" y="184.44" width="130.46" height="133.41" fill="#b7e4c7" fill-opacity="0.08" stroke="#2b9348" stroke-width="1.5"/> <rect x="339.33" y="127.27" width="239.18" height="244.59" fill="#b7e4c7" fill-opacity="0.08" stroke="#2b9348" stroke-width="1.5"/> <rect x="371.87" y="154.65" width="130.46" height="133.41" fill="#b7e4c7" fill-opacity="0.08" stroke="#2b9348" stroke-width="1.5"/> <rect x="379.89" y="151.57" width="130.46" height="133.41" fill="#b7e4c7" fill-opacity="0.08" stroke="#2b9348" stroke-width="1.5"/> <rect x="379.88" y="151.40" width="130.46" height="133.41" fill="#b7e4c7" fill-opacity="0.08" stroke="#2b9348" stroke-width="1.5"/> <rect x="451.97" y="219.72" width="8.43" height="8.62" fill="#d4b8f2" fill-opacity="0.08" stroke="#6a4c93" stroke-width="1.5"/> <rect x="393.60" y="165.46" width="118.26" height="120.94" fill="#d4b8f2" fill-opacity="0.08" stroke="#6a4c93" stroke-width="1.5"/> <rect x="399.16" y="165.17" width="118.26" height="120.93" fill="#d4b8f2" fill-opacity="0.08" stroke="#6a4c93" stroke-width="1.5"/> <rect x="375.40" y="159.85" width="118.27" height="120.95" fill="#d4b8f2" fill-opacity="0.08" stroke="#6a4c93" stroke-width="1.5"/> <rect x="370.54" y="164.57" width="118.25" height="120.92" fill="#d4b8f2" fill-opacity="0.08" stroke="#6a4c93" stroke-width="1.5"/> <rect x="376.41" y="166.69" width="118.59" height="121.28" fill="#d4b8f2" fill-opacity="0.08" stroke="#6a4c93" stroke-width="1.5"/> <rect x="369.68" y="190.18" width="118.21" height="120.89" fill="#d4b8f2" fill-opacity="0.08" stroke="#6a4c93" stroke-width="1.5"/> <rect x="391.70" y="187.96" width="118.63" height="121.32" fill="#d4b8f2" fill-opacity="0.08" stroke="#6a4c93" stroke-width="1.5"/> <rect x="344.88" y="137.32" width="227.10" height="232.24" fill="#d4b8f2" fill-opacity="0.08" stroke="#6a4c93" stroke-width="1.5"/> <rect x="381.43" y="159.23" width="119.25" height="121.95" fill="#d4b8f2" fill-opacity="0.08" stroke="#6a4c93" stroke-width="1.5"/> <rect x="383.28" y="155.02" width="118.29" height="120.96" fill="#d4b8f2" fill-opacity="0.08" stroke="#6a4c93" stroke-width="1.5"/> <rect x="382.29" y="158.09" width="118.24" height="120.92" fill="#d4b8f2" fill-opacity="0.08" stroke="#6a4c93" stroke-width="1.5"/> <rect x="451.97" y="219.72" width="8.43" height="8.62" fill="#f4d6c2" fill-opacity="0.08" stroke="#8a5a44" stroke-width="1.5"/> <rect x="390.53" y="157.45" width="118.94" height="121.64" fill="#f4d6c2" fill-opacity="0.08" stroke="#8a5a44" stroke-width="1.5"/> <rect x="404.49" y="145.97" width="118.58" height="121.26" fill="#f4d6c2" fill-opacity="0.08" stroke="#8a5a44" stroke-width="1.5"/> <rect x="372.45" y="154.79" width="118.22" height="120.89" fill="#f4d6c2" fill-opacity="0.08" stroke="#8a5a44" stroke-width="1.5"/> <rect x="394.08" y="154.70" width="119.31" height="122.01" fill="#f4d6c2" fill-opacity="0.08" stroke="#8a5a44" stroke-width="1.5"/> <rect x="388.18" y="148.57" width="118.97" height="121.66" fill="#f4d6c2" fill-opacity="0.08" stroke="#8a5a44" stroke-width="1.5"/> <rect x="392.02" y="151.47" width="119.23" height="121.93" fill="#f4d6c2" fill-opacity="0.08" stroke="#8a5a44" stroke-width="1.5"/> <rect x="369.54" y="156.08" width="118.88" height="121.57" fill="#f4d6c2" fill-opacity="0.08" stroke="#8a5a44" stroke-width="1.5"/> <rect x="318.50" y="90.27" width="227.50" height="232.65" fill="#f4d6c2" fill-opacity="0.08" stroke="#8a5a44" stroke-width="1.5"/> <rect x="370.74" y="145.14" width="118.37" height="121.05" fill="#f4d6c2" fill-opacity="0.08" stroke="#8a5a44" stroke-width="1.5"/> <rect x="351.15" y="82.83" width="117.85" height="120.51" fill="#f4d6c2" fill-opacity="0.08" stroke="#8a5a44" stroke-width="1.5"/> <rect x="354.75" y="63.56" width="116.26" height="118.89" fill="#f4d6c2" fill-opacity="0.08" stroke="#8a5a44" stroke-width="1.5"/>
  <polyline points="456.18,224.03 456.12,224.05 456.17,224.13 456.26,224.19 456.02,224.03 456.02,224.17 456.06,224.07 456.15,223.95 456.03,224.18 455.87,224.38 455.84,224.20 455.84,224.07 455.72,223.89 456.00,223.52 455.93,223.50 455.70,223.35 455.46,223.26 455.25,223.29 454.94,223.43 450.94,223.67 441.43,224.12 434.26,224.12 433.78,223.73 433.99,223.74 434.05,223.98 433.95,224.08 433.95,224.14 433.83,224.16 433.77,224.38 433.53,224.37 433.31,224.13 433.20,223.94 433.27,223.95 433.35,223.99 433.24,224.10 433.22,223.95 433.24,223.90 433.19,223.85 433.09,223.81 433.25,223.85 433.40,223.80 433.36,223.79 433.20,223.91 433.18,224.01 433.17,224.23 433.28,224.23 433.35,224.24 432.40,226.21 430.36,230.34 427.48,235.96 425.24,241.97 425.28,249.24 425.65,252.06 425.48,252.31 425.29,252.24 425.37,252.12 428.93,252.09 440.07,251.26 445.69,250.98 446.25,251.24 447.21,251.32 449.75,251.12 454.11,251.14 460.06,251.09 467.70,251.13 474.64,251.17 476.79,250.74 476.54,249.43 475.54,249.19 472.24,249.36 466.09,249.70 458.92,249.56 452.03,249.46 443.77,249.44 434.81,249.23 426.81,249.12 420.17,245.81 421.33,239.22 427.34,233.12 431.20,226.76 437.10,221.35 444.24,218.97 445.33,218.79 445.05,218.84 445.00,218.90 445.07,218.85 445.10,218.81 445.04,218.55 445.03,218.38 445.12,218.28 445.11,218.11 445.02,218.09" fill="none" stroke="#213547" stroke-width="2"/>
  <text x="40" y="541" font-family="monospace" font-size="12" fill="#213547">seed_only: contains=92/92 map=4/92 matches=0 err_mean=11.6m err_max=24.8m score_mean=n/a first_offmap=4 streak=4 avg_crop=3014.3m</text><text x="40" y="557" font-family="monospace" font-size="12" fill="#213547">oracle_previous_truth: contains=92/92 map=92/92 matches=92 err_mean=0.0m err_max=0.0m score_mean=n/a first_offmap=none streak=92 avg_crop=65.9m</text><text x="40" y="573" font-family="monospace" font-size="12" fill="#213547">recursive_oracle_estimate: contains=92/92 map=92/92 matches=92 err_mean=0.0m err_max=0.0m score_mean=n/a first_offmap=none streak=92 avg_crop=78.3m</text><text x="40" y="589" font-family="monospace" font-size="12" fill="#213547">recursive_placeholder_matcher: contains=92/92 map=92/92 matches=92 err_mean=2.3m err_max=3.2m score_mean=n/a first_offmap=none streak=92 avg_crop=71.6m</text><text x="40" y="605" font-family="monospace" font-size="12" fill="#213547">recursive_image_baseline_matcher: contains=88/92 map=92/92 matches=92 err_mean=17.3m err_max=57.1m score_mean=0.75 first_offmap=none streak=92 avg_crop=71.5m</text>
</svg>
